<svg xmlns="http://www.w3.org/2000/svg" viewBox="0 0 32 32" fill="none">
  <defs>
    <linearGradient id="bg" x1="0" y1="0" x2="32" y2="32">
      <stop offset="0%" stop-color="#F97316"/>
      <stop offset="100%" stop-color="#EA580C"/>
    </linearGradient>
  </defs>
  <!-- Orange rounded square background -->
  <rect width="32" height="32" rx="7" fill="url(#bg)"/>
  <!-- Back speech bubble (slightly offset right and down) -->
  <path d="M18 8C21.866 8 25 10.91 25 14.5C25 18.09 21.866 21 18 21C17.28 21 16.59 20.89 15.94 20.69L12.5 23V19.76C10.97 18.52 10 16.62 10 14.5C10 10.91 13.134 8 17 8H18Z" fill="white" opacity="0.5" transform="translate(1, 0)"/>
  <!-- Front speech bubble (slightly offset left and up) -->
  <path d="M15 6C18.866 6 22 8.91 22 12.5C22 16.09 18.866 19 15 19C14.28 19 13.59 18.89 12.94 18.69L9.5 21V17.76C7.97 16.52 7 14.62 7 12.5C7 8.91 10.134 6 14 6H15Z" fill="white" opacity="0.95"/>
</svg>
